<?xml version="1.0" encoding="UTF-8" standalone="no"?>
<!-- Created with Inkscape (http://www.inkscape.org/) -->
<svg xmlns:dc="http://purl.org/dc/elements/1.1/" xmlns:cc="http://creativecommons.org/ns#" xmlns:rdf="http://www.w3.org/1999/02/22-rdf-syntax-ns#" xmlns:svg="http://www.w3.org/2000/svg" xmlns="http://www.w3.org/2000/svg" xmlns:xlink="http://www.w3.org/1999/xlink" xmlns:sodipodi="http://sodipodi.sourceforge.net/DTD/sodipodi-0.dtd" xmlns:inkscape="http://www.inkscape.org/namespaces/inkscape" width="325" height="325" id="svg2" version="1.1" inkscape:version="0.48.0 r9654" sodipodi:docname="Nube_computo.svg">
  <title id="title5641">Nube computo</title>
  <defs id="defs4">
    <linearGradient id="linearGradient5252" inkscape:collect="always">
      <stop id="stop5254" offset="0" style="stop-color:#cccccc;stop-opacity:1"/>
      <stop id="stop5256" offset="1" style="stop-color:#ffffff;stop-opacity:0;"/>
    </linearGradient>
    <linearGradient inkscape:collect="always" id="linearGradient5232">
      <stop style="stop-color:#ffffff;stop-opacity:1;" offset="0" id="stop5234"/>
      <stop style="stop-color:#ffffff;stop-opacity:0;" offset="1" id="stop5236"/>
    </linearGradient>
    <linearGradient id="linearGradient5206" inkscape:collect="always">
      <stop id="stop5208" offset="0" style="stop-color:#0055d4;stop-opacity:0"/>
      <stop id="stop5210" offset="1" style="stop-color:#333333;stop-opacity:1"/>
    </linearGradient>
    <linearGradient inkscape:collect="always" id="linearGradient4357">
      <stop style="stop-color:#ffffff;stop-opacity:1;" offset="0" id="stop4359"/>
      <stop style="stop-color:#ffffff;stop-opacity:0;" offset="1" id="stop4361"/>
    </linearGradient>
    <filter inkscape:collect="always" id="filter5244" color-interpolation-filters="sRGB">
      <feGaussianBlur inkscape:collect="always" stdDeviation="1.543125" id="feGaussianBlur5246"/>
    </filter>
    <linearGradient inkscape:collect="always" xlink:href="#linearGradient4357" id="linearGradient5633" gradientUnits="userSpaceOnUse" x1="256" y1="219.99521" x2="255" y2="337.39484"/>
    <linearGradient inkscape:collect="always" xlink:href="#linearGradient5206" id="linearGradient5635" gradientUnits="userSpaceOnUse" x1="252" y1="456.25821" x2="252" y2="537.36218"/>
    <linearGradient inkscape:collect="always" xlink:href="#linearGradient5232" id="linearGradient5637" gradientUnits="userSpaceOnUse" x1="241" y1="180.35034" x2="237" y2="393.36639"/>
    <linearGradient inkscape:collect="always" xlink:href="#linearGradient5252" id="linearGradient5639" gradientUnits="userSpaceOnUse" x1="241" y1="180.35034" x2="241" y2="420.65689"/>
  </defs>
  <sodipodi:namedview id="base" pagecolor="#ffffff" bordercolor="#666666" borderopacity="1.0" inkscape:pageopacity="0.0" inkscape:pageshadow="2" inkscape:zoom="1" inkscape:cx="143.77843" inkscape:cy="100.43523" inkscape:document-units="px" inkscape:current-layer="layer1" showgrid="false" inkscape:window-width="1280" inkscape:window-height="948" inkscape:window-x="0" inkscape:window-y="1" inkscape:window-maximized="1" fit-margin-top="0" fit-margin-left="0" fit-margin-right="0" fit-margin-bottom="0"/>
  <metadata id="metadata7">
    <rdf:RDF>
      <cc:Work rdf:about="">
        <dc:format>image/svg+xml</dc:format>
        <dc:type rdf:resource="http://purl.org/dc/dcmitype/StillImage"/>
        <dc:title>Nube computo</dc:title>
        <dc:date>31 de marzo del 2011</dc:date>
        <dc:creator>
          <cc:Agent>
            <dc:title>Alex Puente</dc:title>
          </cc:Agent>
        </dc:creator>
        <dc:rights>
          <cc:Agent>
            <dc:title>Alex Puente</dc:title>
          </cc:Agent>
        </dc:rights>
        <dc:publisher>
          <cc:Agent>
            <dc:title>Alex Puente</dc:title>
          </cc:Agent>
        </dc:publisher>
        <dc:contributor>
          <cc:Agent>
            <dc:title>Alex Puente</dc:title>
          </cc:Agent>
        </dc:contributor>
        <cc:license rdf:resource="http://creativecommons.org/licenses/publicdomain/"/>
        <dc:language>es-MX</dc:language>
        <dc:subject>
          <rdf:Bag>
            <rdf:li>button</rdf:li>
            <rdf:li>cloud</rdf:li>
            <rdf:li>computing</rdf:li>
            <rdf:li>internet</rdf:li>
            <rdf:li>web</rdf:li>
            <rdf:li>boton nube</rdf:li>
            <rdf:li>computo</rdf:li>
            <rdf:li>computacion</rdf:li>
            <rdf:li>informatica</rdf:li>
            <rdf:li/>
          </rdf:Bag>
        </dc:subject>
        <dc:description>A cloud computing button w/bezel. Boton con biselde computacion en la nube.</dc:description>
      </cc:Work>
      <cc:License rdf:about="http://creativecommons.org/licenses/publicdomain/">
        <cc:permits rdf:resource="http://creativecommons.org/ns#Reproduction"/>
        <cc:permits rdf:resource="http://creativecommons.org/ns#Distribution"/>
        <cc:permits rdf:resource="http://creativecommons.org/ns#DerivativeWorks"/>
      </cc:License>
    </rdf:RDF>
  </metadata>
  <g inkscape:label="Capa 1" inkscape:groupmode="layer" id="layer1" transform="translate(-85.4097, -226.184)">
    <g id="g5619" transform="translate(5, -1)">
      <path d="m 121.21875,232.34375 c -19.58035,0 -35.59375,16.0134 -35.59375,35.59375 l 0,245.4375 c 0,19.58035 16.0134,35.59375 35.59375,35.59375 l 245.4375,0 c 19.58035,0 35.59375,-16.0134 35.59375,-35.59375 l 0,-245.4375 c 0,-19.58035 -16.0134,-35.59375 -35.59375,-35.59375 l -245.4375,0 z" id="path5219" style="fill:#0055d4;fill-opacity:1;stroke:none" inkscape:original="M 121.21875 238.59375 C 105.03129 238.59375 91.875 251.75004 91.875 267.9375 L 91.875 513.375 C 91.875 529.56246 105.03129 542.71875 121.21875 542.71875 L 366.65625 542.71875 C 382.84371 542.71875 396 529.56246 396 513.375 L 396 267.9375 C 396 251.75004 382.84371 238.59375 366.65625 238.59375 L 121.21875 238.59375 z " inkscape:radius="6.2619104" sodipodi:type="inkscape:offset"/>
      <g id="g4323">
        <path sodipodi:type="arc" style="fill:#ffffff;fill-opacity:1;stroke:none" id="path4297" sodipodi:cx="232.5" sodipodi:cy="425.86218" sodipodi:rx="90.5" sodipodi:ry="39.5" d="m 323,425.86218 c 0,21.81525 -40.51823,39.5 -90.5,39.5 -49.98177,0 -90.5,-17.68475 -90.5,-39.5 0,-21.81525 40.51823,-39.5 90.5,-39.5 49.98177,0 90.5,17.68475 90.5,39.5 z" transform="matrix(1.26519, 0, 0, 1, -32.798, -9.70103)"/>
        <path transform="matrix(0.922652, 0, 0, 1, -10.1571, -8.70103)" d="m 323,425.86218 c 0,21.81525 -40.51823,39.5 -90.5,39.5 -49.98177,0 -90.5,-17.68475 -90.5,-39.5 0,-21.81525 40.51823,-39.5 90.5,-39.5 49.98177,0 90.5,17.68475 90.5,39.5 z" sodipodi:ry="39.5" sodipodi:rx="90.5" sodipodi:cy="425.86218" sodipodi:cx="232.5" id="path4299" style="fill:#ffffff;fill-opacity:1;stroke:none" sodipodi:type="arc"/>
        <path sodipodi:type="arc" style="fill:#ffffff;fill-opacity:1;stroke:none" id="path4301" sodipodi:cx="232.5" sodipodi:cy="425.86218" sodipodi:rx="90.5" sodipodi:ry="39.5" d="m 323,425.86218 c 0,21.81525 -40.51823,39.5 -90.5,39.5 -49.98177,0 -90.5,-17.68475 -90.5,-39.5 0,-21.81525 40.51823,-39.5 90.5,-39.5 49.98177,0 90.5,17.68475 90.5,39.5 z" transform="matrix(0.696133, 0, 0, 1, 48.0087, -54.701)"/>
        <path transform="matrix(0.552486, 0, 0, 0.873418, 154.406, -31.7944)" d="m 323,425.86218 c 0,21.81525 -40.51823,39.5 -90.5,39.5 -49.98177,0 -90.5,-17.68475 -90.5,-39.5 0,-21.81525 40.51823,-39.5 90.5,-39.5 49.98177,0 90.5,17.68475 90.5,39.5 z" sodipodi:ry="39.5" sodipodi:rx="90.5" sodipodi:cy="425.86218" sodipodi:cx="232.5" id="path4303" style="fill:#ffffff;fill-opacity:1;stroke:none" sodipodi:type="arc"/>
        <path sodipodi:type="arc" style="fill:#ffffff;fill-opacity:1;stroke:none" id="path4305" sodipodi:cx="232.5" sodipodi:cy="425.86218" sodipodi:rx="90.5" sodipodi:ry="39.5" d="m 323,425.86218 c 0,21.81525 -40.51823,39.5 -90.5,39.5 -49.98177,0 -90.5,-17.68475 -90.5,-39.5 0,-21.81525 40.51823,-39.5 90.5,-39.5 49.98177,0 90.5,17.68475 90.5,39.5 z" transform="matrix(0.552486, 0, 0, 0.873418, 190.406, 4.20557)"/>
      </g>
      <path transform="matrix(1, 0, 0, 1.28671, -5.00875, -79.7078)" d="m 126.21875,254.375 c -11.47697,0 -20.5625,9.08553 -20.5625,20.5625 l 0,22.46875 c 37.10464,11.19213 87.5862,18.1875 143.28125,18.1875 55.69505,0 106.17661,-6.99537 143.28125,-18.1875 l 0,-22.46875 c 0,-11.47697 -9.08553,-20.5625 -20.5625,-20.5625 l -245.4375,0 z" id="path4347" style="fill:url(#linearGradient5633);fill-opacity:1;stroke:none" inkscape:original="M 126.21875 249.59375 C 112.17799 249.59375 100.875 260.89674 100.875 274.9375 L 100.875 301 C 138.9053 312.98055 191.20209 320.375 248.9375 320.375 C 306.67291 320.375 358.9697 312.98055 397 301 L 397 274.9375 C 397 260.89674 385.69701 249.59375 371.65625 249.59375 L 126.21875 249.59375 z " inkscape:radius="-4.7771759" sodipodi:type="inkscape:offset"/>
      <path transform="matrix(1, 0, 0, 1.00347, 0, -1.85586)" d="m 121.21875,246.59375 c -11.89406,0 -21.34375,9.44969 -21.34375,21.34375 l 0,245.4375 c 0,11.89406 9.44969,21.34375 21.34375,21.34375 l 245.4375,0 C 378.55031,534.71875 388,525.26906 388,513.375 l 0,-245.4375 c 0,-11.89406 -9.44969,-21.34375 -21.34375,-21.34375 l -245.4375,0 z" id="path5202" style="fill:url(#linearGradient5635);fill-opacity:1;stroke:none" inkscape:original="M 121.21875 242.59375 C 107.17799 242.59375 95.875 253.89674 95.875 267.9375 L 95.875 513.375 C 95.875 527.41576 107.17799 538.71875 121.21875 538.71875 L 366.65625 538.71875 C 380.69701 538.71875 392 527.41576 392 513.375 L 392 267.9375 C 392 253.89674 380.69701 242.59375 366.65625 242.59375 L 121.21875 242.59375 z " inkscape:radius="-4" sodipodi:type="inkscape:offset"/>
      <path d="m 121.21875,232.34375 c -19.58035,0 -35.59375,16.0134 -35.59375,35.59375 l 0,245.4375 c 0,19.58035 16.0134,35.59375 35.59375,35.59375 l 245.4375,0 c 19.58035,0 35.59375,-16.0134 35.59375,-35.59375 l 0,-245.4375 c 0,-19.58035 -16.0134,-35.59375 -35.59375,-35.59375 l -245.4375,0 z m 0,13.15625 245.4375,0 c 12.44111,0 22.4375,9.99639 22.4375,22.4375 l 0,245.4375 c 0,12.44111 -9.99639,22.4375 -22.4375,22.4375 l -245.4375,0 c -12.44111,0 -22.4375,-9.99639 -22.4375,-22.4375 l 0,-245.4375 c 0,-12.44111 9.99639,-22.4375 22.4375,-22.4375 z" id="path5226" style="fill:#0055d4;fill-opacity:1;stroke:none" inkscape:original="M 121.21875 232.34375 C 101.6384 232.34375 85.625 248.35715 85.625 267.9375 L 85.625 513.375 C 85.625 532.95535 101.6384 548.96875 121.21875 548.96875 L 366.65625 548.96875 C 386.2366 548.96875 402.25 532.95535 402.25 513.375 L 402.25 267.9375 C 402.25 248.35715 386.2366 232.34375 366.65625 232.34375 L 121.21875 232.34375 z M 121.21875 245.5 L 366.65625 245.5 C 379.09736 245.5 389.09375 255.49639 389.09375 267.9375 L 389.09375 513.375 C 389.09375 525.81611 379.09736 535.8125 366.65625 535.8125 L 121.21875 535.8125 C 108.77764 535.8125 98.78125 525.81611 98.78125 513.375 L 98.78125 267.9375 C 98.78125 255.49639 108.77764 245.5 121.21875 245.5 z " inkscape:radius="0" sodipodi:type="inkscape:offset"/>
      <path transform="translate(-0.51183, -1.53549)" d="m 121.21875,236.34375 c -17.39947,0 -31.59375,14.19428 -31.59375,31.59375 l 0,245.4375 c 0,17.39947 14.19428,31.59375 31.59375,31.59375 l 245.4375,0 c 17.39947,0 31.59375,-14.19428 31.59375,-31.59375 l 0,-245.4375 c 0,-17.39947 -14.19428,-31.59375 -31.59375,-31.59375 l -245.4375,0 z m 0,5.15625 245.4375,0 c 14.58377,0 26.4375,11.85373 26.4375,26.4375 l 0,245.4375 c 0,14.58377 -11.85373,26.4375 -26.4375,26.4375 l -245.4375,0 c -14.58377,0 -26.4375,-11.85373 -26.4375,-26.4375 l 0,-245.4375 c 0,-14.58377 11.85373,-26.4375 26.4375,-26.4375 z" id="path5240" style="fill:url(#linearGradient5637);fill-opacity:1;stroke:none;filter:url(#filter5244)" inkscape:original="M 121.21875 232.34375 C 101.6384 232.34375 85.625 248.35715 85.625 267.9375 L 85.625 513.375 C 85.625 532.95535 101.6384 548.96875 121.21875 548.96875 L 366.65625 548.96875 C 386.2366 548.96875 402.25 532.95535 402.25 513.375 L 402.25 267.9375 C 402.25 248.35715 386.2366 232.34375 366.65625 232.34375 L 121.21875 232.34375 z M 121.21875 245.5 L 366.65625 245.5 C 379.09736 245.5 389.09375 255.49639 389.09375 267.9375 L 389.09375 513.375 C 389.09375 525.81611 379.09736 535.8125 366.65625 535.8125 L 121.21875 535.8125 C 108.77764 535.8125 98.78125 525.81611 98.78125 513.375 L 98.78125 267.9375 C 98.78125 255.49639 108.77764 245.5 121.21875 245.5 z " inkscape:radius="-4" sodipodi:type="inkscape:offset"/>
      <path sodipodi:type="inkscape:offset" inkscape:radius="-4" inkscape:original="M 121.21875 232.34375 C 101.6384 232.34375 85.625 248.35715 85.625 267.9375 L 85.625 513.375 C 85.625 532.95535 101.6384 548.96875 121.21875 548.96875 L 366.65625 548.96875 C 386.2366 548.96875 402.25 532.95535 402.25 513.375 L 402.25 267.9375 C 402.25 248.35715 386.2366 232.34375 366.65625 232.34375 L 121.21875 232.34375 z M 121.21875 245.5 L 366.65625 245.5 C 379.09736 245.5 389.09375 255.49639 389.09375 267.9375 L 389.09375 513.375 C 389.09375 525.81611 379.09736 535.8125 366.65625 535.8125 L 121.21875 535.8125 C 108.77764 535.8125 98.78125 525.81611 98.78125 513.375 L 98.78125 267.9375 C 98.78125 255.49639 108.77764 245.5 121.21875 245.5 z " style="fill:url(#linearGradient5639);fill-opacity:1;stroke:none;filter:url(#filter5244)" id="path5248" d="m 121.21875,236.34375 c -17.39947,0 -31.59375,14.19428 -31.59375,31.59375 l 0,245.4375 c 0,17.39947 14.19428,31.59375 31.59375,31.59375 l 245.4375,0 c 17.39947,0 31.59375,-14.19428 31.59375,-31.59375 l 0,-245.4375 c 0,-17.39947 -14.19428,-31.59375 -31.59375,-31.59375 l -245.4375,0 z m 0,5.15625 245.4375,0 c 14.58377,0 26.4375,11.85373 26.4375,26.4375 l 0,245.4375 c 0,14.58377 -11.85373,26.4375 -26.4375,26.4375 l -245.4375,0 c -14.58377,0 -26.4375,-11.85373 -26.4375,-26.4375 l 0,-245.4375 c 0,-14.58377 11.85373,-26.4375 26.4375,-26.4375 z" transform="matrix(1, 0, 0, -1, -0.51183, 783.824)"/>
    </g>
  </g>
</svg>